ply
format ascii 1.0
comment written by method MeshWithData::saveAsPLY
element vertex 262
property float x
property float y
property float z
element face 528
property list uchar int vertex_index
end_header
0.2421875 0.2421875 0.12109375
1 0.125 0.125
2 0.125 0.125
3 0.125 0.125
4 0.125 0.125
5 0.125 0.125
6 0.125 0.125
6.8318138 0.16818644 0.25227967
0.125 1 0.125
1 1 0.12020344
2 1 0.049024921
3 1 0
4 1 0
5 1 0.12020344
6 1 0.049024921
6.875 1 0.125
0.125 2 0.125
1 2 0.049024921
2 2 0.12020344
3 2 0
4 2 0
5 2 0.049024921
6 2 0.12020344
6.875 2 0.125
0.16818644 2.8318138 0.25227967
1 2.875 0.125
2 2.875 0.125
3 2.875 0.125
4 2.875 0.125
5 2.875 0.125
6 2.875 0.125
6.7578125 2.7578125 0.12109375
0.16818644 0.16818644 0.74772036
1 0.125 0.875
2 0.125 0.875
3 0.125 0.875
4 0.125 0.875
5 0.125 0.875
6 0.125 0.875
6.7578125 0.2421875 0.87890625
0.125 1 0.875
1 1 0.95097506
2 1 0.87979662
3 1 1
4 1 1
5 1 0.95097506
6 1 0.87979662
6.875 1 0.875
0.125 2 0.875
1 2 0.87979662
2 2 0.95097506
3 2 1
4 2 1
5 2 0.87979662
6 2 0.95097506
6.875 2 0.875
0.2421875 2.7578125 0.87890625
1 2.875 0.875
2 2.875 0.875
3 2.875 0.875
4 2.875 0.875
5 2.875 0.875
6 2.875 0.875
6.8318138 2.8318138 0.74772036
0.5 0.5 0
0.5 1 0
0.125 0.5 0.125
0.5 0.125 0.125
1 0.5 0
1.5 0.5 0
1.5 0.875 0.125
1.5 0.125 0.125
2 0.5 0
2.5 0.5 0
2.5 1 0
2.5 0.125 0.125
3 0.5 0
3.5 0.5 0
3.5 1 0
3.5 0.125 0.125
4 0.5 0
4.5 0.5 0
4.5 1 0
4.5 0.125 0.125
5 0.5 0
5.5 0.5 0
5.5 0.875 0.125
5.5 0.125 0.125
6 0.5 0
6.5 0.5 0
6.5 1 0
6.5 0.125 0.125
6.875 0.5 0.125
7 0.5 0.5
7 1 0.5
6.875 0.125 0.625
6.875 0.5 0.875
0.125 0.125 0.375
0 0.5 0.5
0 1 0.5
0.125 0.5 0.875
0.5 0 0.5
0.5 0.125 0.875
1 0 0.5
1.5 0 0.5
1.5 0.125 0.875
2 0 0.5
2.5 0 0.5
2.5 0.125 0.875
3 0 0.5
3.5 0 0.5
3.5 0.125 0.875
4 0 0.5
4.5 0 0.5
4.5 0.125 0.875
5 0 0.5
5.5 0 0.5
5.5 0.125 0.875
6 0 0.5
6.5 0 0.5
6.5 0.125 0.875
0.125 1.5 0.125
0 1.5 0.5
0 2 0.5
0.125 1.5 0.875
0.5 1.5 0
0.5 2 0
0.875 1.5 0.125
2.5 1.5 0
2.5 2 0
2.125 1.5 0.125
3 1.5 0
3.5 1.5 0
3.5 2 0
4 1.5 0
4.5 1.5 0
4.5 2 0
4.875 1.5 0.125
6.5 1.5 0
6.5 2 0
6.125 1.5 0.125
6.875 1.5 0.125
7 1.5 0.5
7 2 0.5
6.875 1.5 0.875
0.125 2.5 0.125
0 2.5 0.5
0.125 2.875 0.625
0.125 2.5 0.875
0.5 2.5 0
0.5 2.875 0.125
1 2.5 0
1.5 2.5 0
1.5 2.875 0.125
1.5 2.125 0.125
2 2.5 0
2.5 2.5 0
2.5 2.875 0.125
3 2.5 0
3.5 2.5 0
3.5 2.875 0.125
4 2.5 0
4.5 2.5 0
4.5 2.875 0.125
5 2.5 0
5.5 2.5 0
5.5 2.875 0.125
5.5 2.125 0.125
6 2.5 0
6.5 2.5 0
6.5 2.875 0.125
6.875 2.5 0.125
7 2.5 0.5
6.875 2.875 0.375
6.875 2.5 0.875
0.5 3 0.5
0.5 2.875 0.875
1 3 0.5
1.5 3 0.5
1.5 2.875 0.875
2 3 0.5
2.5 3 0.5
2.5 2.875 0.875
3 3 0.5
3.5 3 0.5
3.5 2.875 0.875
4 3 0.5
4.5 3 0.5
4.5 2.875 0.875
5 3 0.5
5.5 3 0.5
5.5 2.875 0.875
6 3 0.5
6.5 3 0.5
6.5 2.875 0.875
0.5 2.5 1
0.5 2 1
1 2.5 1
1.5 2.5 1
1.5 2.125 0.875
2 2.5 1
2.5 2.5 1
2.5 2 1
3 2.5 1
3.5 2.5 1
3.5 2 1
4 2.5 1
4.5 2.5 1
4.5 2 1
5 2.5 1
5.5 2.5 1
5.5 2.125 0.875
6 2.5 1
6.5 2.5 1
6.5 2 1
0.5 1.5 1
0.5 1 1
0.875 1.5 0.875
2.5 1.5 1
2.5 1 1
2.125 1.5 0.875
3 1.5 1
3.5 1.5 1
3.5 1 1
4 1.5 1
4.5 1.5 1
4.5 1 1
4.875 1.5 0.875
6.5 1.5 1
6.5 1 1
6.125 1.5 0.875
0.5 0.5 1
1 0.5 1
1.5 0.5 1
1.5 0.875 0.875
2 0.5 1
2.5 0.5 1
3 0.5 1
3.5 0.5 1
4 0.5 1
4.5 0.5 1
5 0.5 1
5.5 0.5 1
5.5 0.875 0.875
6 0.5 1
6.5 0.5 1
1.125 1.125 0.625
1 1.5 0.5
1.125 1.875 0.375
1.5 1 0.5
1.875 1.125 0.375
2 1.5 0.5
1.875 1.875 0.625
1.5 2 0.5
5.125 1.125 0.625
5 1.5 0.5
5.125 1.875 0.375
5.5 1 0.5
5.875 1.125 0.375
6 1.5 0.5
5.875 1.875 0.625
5.5 2 0.5
3 64 65 66
3 64 67 68
3 68 69 70
3 69 71 72
3 72 73 74
3 73 75 76
3 76 77 78
3 77 79 80
3 80 81 82
3 81 83 84
3 84 85 86
3 85 87 88
3 88 89 90
3 89 91 92
3 92 93 94
3 93 95 96
3 97 66 98
3 98 99 100
3 67 97 101
3 101 102 103
3 71 103 104
3 104 105 106
3 75 106 107
3 107 108 109
3 79 109 110
3 110 111 112
3 83 112 113
3 113 114 115
3 87 115 116
3 116 117 118
3 91 118 119
3 95 119 120
3 99 121 122
3 122 123 124
3 121 125 126
3 125 65 127
3 128 129 130
3 128 74 131
3 131 132 133
3 132 78 134
3 134 135 136
3 135 82 137
3 138 139 140
3 138 90 141
3 141 142 143
3 142 94 144
3 123 145 146
3 146 147 148
3 145 149 150
3 149 126 151
3 151 152 153
3 152 154 155
3 155 156 157
3 156 129 158
3 158 159 160
3 159 133 161
3 161 162 163
3 162 136 164
3 164 165 166
3 165 167 168
3 168 169 170
3 169 139 171
3 171 172 173
3 172 143 174
3 147 175 176
3 175 150 177
3 177 178 179
3 178 153 180
3 180 181 182
3 181 157 183
3 183 184 185
3 184 160 186
3 186 187 188
3 187 163 189
3 189 190 191
3 190 166 192
3 192 193 194
3 170 173 193
3 148 195 196
3 195 176 197
3 197 198 199
3 198 179 200
3 200 201 202
3 201 182 203
3 203 204 205
3 204 185 206
3 206 207 208
3 207 188 209
3 209 210 211
3 210 191 212
3 212 213 214
3 194 174 213
3 124 215 216
3 215 196 217
3 218 219 220
3 218 202 221
3 221 222 223
3 222 205 224
3 224 225 226
3 225 208 227
3 228 229 230
3 214 144 228
3 102 100 231
3 231 216 232
3 105 232 233
3 233 234 235
3 108 235 236
3 236 219 237
3 111 237 238
3 238 223 239
3 114 239 240
3 240 226 241
3 117 241 242
3 242 243 244
3 120 244 245
3 229 96 245
3 246 217 247
3 127 247 248
3 234 246 249
3 249 70 250
3 250 130 251
3 220 251 252
3 154 248 253
3 199 252 253
3 254 227 255
3 137 255 256
3 243 254 257
3 257 86 258
3 258 140 259
3 230 259 260
3 167 256 261
3 211 260 261
3 8 66 65
3 0 64 66
3 9 65 64
3 1 68 67
3 9 64 68
3 0 67 64
3 10 70 69
3 9 68 70
3 1 69 68
3 2 72 71
3 10 69 72
3 1 71 69
3 11 74 73
3 10 72 74
3 2 73 72
3 3 76 75
3 11 73 76
3 2 75 73
3 12 78 77
3 11 76 78
3 3 77 76
3 4 80 79
3 12 77 80
3 3 79 77
3 13 82 81
3 12 80 82
3 4 81 80
3 5 84 83
3 13 81 84
3 4 83 81
3 14 86 85
3 13 84 86
3 5 85 84
3 6 88 87
3 14 85 88
3 5 87 85
3 15 90 89
3 14 88 90
3 6 89 88
3 7 92 91
3 15 89 92
3 6 91 89
3 47 94 93
3 15 92 94
3 7 93 92
3 39 96 95
3 47 93 96
3 7 95 93
3 8 98 66
3 32 97 98
3 0 66 97
3 40 100 99
3 32 98 100
3 8 99 98
3 32 101 97
3 1 67 101
3 0 97 67
3 33 103 102
3 1 101 103
3 32 102 101
3 33 104 103
3 2 71 104
3 1 103 71
3 34 106 105
3 2 104 106
3 33 105 104
3 34 107 106
3 3 75 107
3 2 106 75
3 35 109 108
3 3 107 109
3 34 108 107
3 35 110 109
3 4 79 110
3 3 109 79
3 36 112 111
3 4 110 112
3 35 111 110
3 36 113 112
3 5 83 113
3 4 112 83
3 37 115 114
3 5 113 115
3 36 114 113
3 37 116 115
3 6 87 116
3 5 115 87
3 38 118 117
3 6 116 118
3 37 117 116
3 38 119 118
3 7 91 119
3 6 118 91
3 38 120 119
3 39 95 120
3 7 119 95
3 16 122 121
3 40 99 122
3 8 121 99
3 48 124 123
3 40 122 124
3 16 123 122
3 17 126 125
3 16 121 126
3 8 125 121
3 9 127 65
3 17 125 127
3 8 65 125
3 18 130 129
3 10 128 130
3 19 129 128
3 11 131 74
3 19 128 131
3 10 74 128
3 20 133 132
3 19 131 133
3 11 132 131
3 12 134 78
3 20 132 134
3 11 78 132
3 21 136 135
3 20 134 136
3 12 135 134
3 13 137 82
3 21 135 137
3 12 82 135
3 22 140 139
3 14 138 140
3 23 139 138
3 15 141 90
3 23 138 141
3 14 90 138
3 55 143 142
3 23 141 143
3 15 142 141
3 47 144 94
3 55 142 144
3 15 94 142
3 24 146 145
3 48 123 146
3 16 145 123
3 56 148 147
3 48 146 148
3 24 147 146
3 25 150 149
3 24 145 150
3 16 149 145
3 17 151 126
3 25 149 151
3 16 126 149
3 26 153 152
3 25 151 153
3 17 152 151
3 18 155 154
3 26 152 155
3 17 154 152
3 27 157 156
3 26 155 157
3 18 156 155
3 19 158 129
3 27 156 158
3 18 129 156
3 28 160 159
3 27 158 160
3 19 159 158
3 20 161 133
3 28 159 161
3 19 133 159
3 29 163 162
3 28 161 163
3 20 162 161
3 21 164 136
3 29 162 164
3 20 136 162
3 30 166 165
3 29 164 166
3 21 165 164
3 22 168 167
3 30 165 168
3 21 167 165
3 31 170 169
3 30 168 170
3 22 169 168
3 23 171 139
3 31 169 171
3 22 139 169
3 63 173 172
3 31 171 173
3 23 172 171
3 55 174 143
3 63 172 174
3 23 143 172
3 57 176 175
3 56 147 176
3 24 175 147
3 25 177 150
3 57 175 177
3 24 150 175
3 58 179 178
3 57 177 179
3 25 178 177
3 26 180 153
3 58 178 180
3 25 153 178
3 59 182 181
3 58 180 182
3 26 181 180
3 27 183 157
3 59 181 183
3 26 157 181
3 60 185 184
3 59 183 185
3 27 184 183
3 28 186 160
3 60 184 186
3 27 160 184
3 61 188 187
3 60 186 188
3 28 187 186
3 29 189 163
3 61 187 189
3 28 163 187
3 62 191 190
3 61 189 191
3 29 190 189
3 30 192 166
3 62 190 192
3 29 166 190
3 63 194 193
3 62 192 194
3 30 193 192
3 63 193 173
3 30 170 193
3 31 173 170
3 49 196 195
3 48 148 196
3 56 195 148
3 57 197 176
3 49 195 197
3 56 176 195
3 50 199 198
3 49 197 199
3 57 198 197
3 58 200 179
3 50 198 200
3 57 179 198
3 51 202 201
3 50 200 202
3 58 201 200
3 59 203 182
3 51 201 203
3 58 182 201
3 52 205 204
3 51 203 205
3 59 204 203
3 60 206 185
3 52 204 206
3 59 185 204
3 53 208 207
3 52 206 208
3 60 207 206
3 61 209 188
3 53 207 209
3 60 188 207
3 54 211 210
3 53 209 211
3 61 210 209
3 62 212 191
3 54 210 212
3 61 191 210
3 55 214 213
3 54 212 214
3 62 213 212
3 55 213 174
3 62 194 213
3 63 174 194
3 41 216 215
3 40 124 216
3 48 215 124
3 49 217 196
3 41 215 217
3 48 196 215
3 42 220 219
3 50 218 220
3 43 219 218
3 51 221 202
3 43 218 221
3 50 202 218
3 44 223 222
3 43 221 223
3 51 222 221
3 52 224 205
3 44 222 224
3 51 205 222
3 45 226 225
3 44 224 226
3 52 225 224
3 53 227 208
3 45 225 227
3 52 208 225
3 46 230 229
3 54 228 230
3 47 229 228
3 47 228 144
3 54 214 228
3 55 144 214
3 40 231 100
3 33 102 231
3 32 100 102
3 41 232 216
3 33 231 232
3 40 216 231
3 41 233 232
3 34 105 233
3 33 232 105
3 42 235 234
3 34 233 235
3 41 234 233
3 42 236 235
3 35 108 236
3 34 235 108
3 43 237 219
3 35 236 237
3 42 219 236
3 43 238 237
3 36 111 238
3 35 237 111
3 44 239 223
3 36 238 239
3 43 223 238
3 44 240 239
3 37 114 240
3 36 239 114
3 45 241 226
3 37 240 241
3 44 226 240
3 45 242 241
3 38 117 242
3 37 241 117
3 46 244 243
3 38 242 244
3 45 243 242
3 46 245 244
3 39 120 245
3 38 244 120
3 39 245 96
3 46 229 245
3 47 96 229
3 49 247 217
3 9 246 247
3 41 217 246
3 49 248 247
3 17 127 248
3 9 247 127
3 9 249 246
3 42 234 249
3 41 246 234
3 10 250 70
3 42 249 250
3 9 70 249
3 18 251 130
3 42 250 251
3 10 130 250
3 18 252 251
3 50 220 252
3 42 251 220
3 49 253 248
3 18 154 253
3 17 248 154
3 18 253 252
3 49 199 253
3 50 252 199
3 53 255 227
3 13 254 255
3 45 227 254
3 53 256 255
3 21 137 256
3 13 255 137
3 13 257 254
3 46 243 257
3 45 254 243
3 14 258 86
3 46 257 258
3 13 86 257
3 22 259 140
3 46 258 259
3 14 140 258
3 22 260 259
3 54 230 260
3 46 259 230
3 53 261 256
3 22 167 261
3 21 256 167
3 22 261 260
3 53 211 261
3 54 260 211
